<?xml version="1.0" standalone="no"?>
<!DOCTYPE svg PUBLIC "-//W3C//DTD SVG 20010904//EN"
 "http://www.w3.org/TR/2001/REC-SVG-20010904/DTD/svg10.dtd">
<svg version="1.0" xmlns="http://www.w3.org/2000/svg"
 width="64.000000pt" height="60.000000pt" viewBox="0 0 64.000000 60.000000"
 preserveAspectRatio="xMidYMid meet">
<metadata>
Created by potrace 1.16, written by Peter Selinger 2001-2019
</metadata>
<g transform="translate(0.000000,60.000000) scale(0.100000,-0.100000)"
fill="#000000" stroke="none">
<path fill="#FF0000" d="M76 434 c-9 -9 -16 -32 -16 -55 0 -26 -7 -46 -20 -59 l-20 -20 20
-20 c13 -13 20 -33 20 -60 0 -31 5 -43 25 -56 14 -9 28 -14 31 -11 3 3 -4 10
-15 17 -16 8 -21 20 -21 48 0 21 -7 48 -16 60 -14 20 -14 24 0 44 9 12 16 39
16 59 0 27 6 41 23 52 18 13 19 16 5 16 -9 1 -24 -6 -32 -15z"/>
<path fill="#FF0000" d="M240 356 c0 -73 -4 -98 -16 -110 -27 -28 -64 -12 -64 27 0 11 -5 17
-12 14 -18 -6 -11 -49 9 -64 24 -19 67 -16 86 5 14 15 17 40 17 120 0 61 -4
102 -10 102 -6 0 -10 -38 -10 -94z"/>
<path fill="#FF0000" d="M342 434 c-18 -12 -22 -24 -20 -52 3 -36 5 -38 68 -58 56 -18 65 -24
68 -47 6 -53 -98 -64 -118 -11 -11 29 -30 32 -30 5 0 -11 12 -29 26 -40 47
-37 139 -21 150 25 13 52 -5 70 -96 96 -49 14 -61 36 -35 62 24 23 63 20 89
-9 28 -30 36 -31 36 -6 0 45 -91 68 -138 35z"/>
<path fill="#FF0000" d="M520 445 c0 -3 9 -14 20 -25 13 -13 20 -33 20 -60 0 -26 6 -42 18
-50 16 -10 16 -10 0 -20 -12 -8 -18 -24 -18 -50 0 -27 -7 -47 -20 -60 -22 -22
-25 -30 -10 -30 24 0 50 41 50 79 0 30 6 44 22 55 l22 16 -22 16 c-16 11 -22
25 -22 55 0 26 -7 46 -20 59 -19 19 -40 27 -40 15z"/>
</g>
</svg>
