<?xml version="1.0" encoding="UTF-8" standalone="no"?>
<!-- Created with Inkscape (http://www.inkscape.org/) -->

<svg
   width="32mm"
   height="32mm"
   viewBox="0 0 32 32"
   version="1.1"
   id="svg8694"
   xml:space="preserve"
   inkscape:version="1.2.2 (732a01da63, 2022-12-09)"
   sodipodi:docname="JavaScript_pi.svg"
   xmlns:inkscape="http://www.inkscape.org/namespaces/inkscape"
   xmlns:sodipodi="http://sodipodi.sourceforge.net/DTD/sodipodi-0.dtd"
   xmlns="http://www.w3.org/2000/svg"
   xmlns:svg="http://www.w3.org/2000/svg"><sodipodi:namedview
     id="namedview8696"
     pagecolor="#ffffff"
     bordercolor="#000000"
     borderopacity="0.25"
     inkscape:showpageshadow="false"
     inkscape:pageopacity="0.0"
     inkscape:pagecheckerboard="0"
     inkscape:deskcolor="#d1d1d1"
     inkscape:document-units="mm"
     showgrid="false"
     showborder="false"
     borderlayer="false"
     inkscape:zoom="2.1089995"
     inkscape:cx="232.57473"
     inkscape:cy="126.12615"
     inkscape:window-width="1920"
     inkscape:window-height="1017"
     inkscape:window-x="-8"
     inkscape:window-y="-8"
     inkscape:window-maximized="1"
     inkscape:current-layer="layer1" /><defs
     id="defs8691" /><g
     inkscape:groupmode="layer"
     id="layer4"
     inkscape:label="Layer 2"><rect
       style="fill:#282828;fill-opacity:1;stroke-width:0.264583"
       id="rect10282"
       width="34.774193"
       height="33"
       x="-0.7096774"
       y="0" /></g><g
     inkscape:label="Layer 1"
     inkscape:groupmode="layer"
     id="layer1"><path
       style="fill:#b4b4b4;fill-opacity:1;stroke-width:0.0605858"
       d="M 4.1622917,26.95855 C 3.3858606,26.887839 2.8893978,26.657746 2.4338698,26.157501 1.7490675,25.405475 1.5722855,24.485415 1.5709155,21.666271 1.5698798,19.507679 1.505753,19.03226 1.1405651,18.475086 0.91083528,18.124583 0.5961011,17.901105 0.10222331,17.737809 -0.39421166,17.57367 -0.44791504,17.45969 -0.44808036,16.569833 -0.44823089,15.751722 -0.37247583,15.595766 0.08197684,15.478609 0.79312915,15.295272 1.1961573,14.86162 1.435247,14.022526 1.4978376,13.80286 1.5350546,13.149381 1.5687947,11.677628 1.6190772,9.4843313 1.6708619,9.0535962 1.9783945,8.2707089 2.19493,7.7194711 2.7760763,7.1251724 3.2884065,6.9310448 3.7636626,6.7509636 4.604846,6.671454 5.186847,6.7516023 5.9405831,6.8554041 6.0306531,6.9737078 6.0305047,7.8597216 6.0304445,8.2702743 6.0023707,8.4758674 5.925036,8.6323109 5.8242082,8.836281 5.8021604,8.8472335 5.4141639,8.8860014 4.3455273,8.9927873 4.2239926,9.2364468 4.2204329,11.279305 c -0.00432,2.492776 -0.1475513,3.383267 -0.6716511,4.17642 -0.285324,0.431803 -0.794297,0.841618 -1.251684,1.007836 -0.2849273,0.103545 -0.4001074,0.208331 -0.2291169,0.208436 0.041436,2.6e-5 0.2460095,0.08164 0.4546113,0.181379 0.5136029,0.24555 0.9605749,0.709069 1.2353718,1.281122 0.3571983,0.743586 0.409176,1.150788 0.4624745,3.62313 0.028217,1.308802 0.074412,2.27856 0.1146099,2.405802 0.037036,0.117246 0.1300224,0.291887 0.2066326,0.388097 0.1274279,0.16002 0.1852009,0.179145 0.6783586,0.224572 0.4807632,0.04429 0.5542721,0.06752 0.6796548,0.214828 0.1331548,0.156444 0.1395362,0.20363 0.1206792,0.892381 -0.019313,0.705415 -0.02484,0.731487 -0.1845165,0.870157 -0.2253258,0.195676 -0.8868225,0.276742 -1.6735654,0.205085 z M 27.61646,26.95325 c -0.533297,-0.04466 -0.764713,-0.146209 -0.848305,-0.372236 -0.171033,-0.462429 -0.107031,-1.428588 0.109102,-1.647008 0.08694,-0.08786 0.242801,-0.129256 0.609294,-0.16182 0.433537,-0.03853 0.513174,-0.06483 0.665372,-0.219802 0.283498,-0.288657 0.358485,-0.724979 0.359551,-2.09216 0.0017,-2.420072 0.148583,-3.480456 0.60894,-4.40208 0.270804,-0.542149 0.778867,-1.058766 1.268797,-1.290153 l 0.402102,-0.189874 -0.462371,-0.166203 C 29.809361,16.225184 29.362809,15.911548 29.076658,15.532408 28.634147,14.946098 28.515669,14.108507 28.512386,11.543393 28.509662,9.2256463 28.403894,8.9707464 27.412418,8.8865825 26.972868,8.8492543 26.91388,8.8288887 26.800513,8.6751415 26.69386,8.5305091 26.674842,8.416336 26.673703,7.9138082 c -0.0017,-0.6669971 0.07884,-0.9350535 0.312507,-1.0426509 0.464572,-0.2139121 1.806198,-0.1899079 2.411428,0.043139 0.671007,0.2583866 1.139195,0.746669 1.407382,1.4677789 0.266591,0.7168169 0.30453,1.0948475 0.352149,3.5085338 0.05039,2.555249 0.06676,2.667935 0.44467,3.065509 0.244163,0.25688 0.403858,0.340813 0.889056,0.467284 0.213988,0.05578 0.435237,0.143282 0.49167,0.194447 0.14885,0.134973 0.248896,0.71212 0.211127,1.217998 -0.04776,0.64003 -0.118952,0.751789 -0.562619,0.883501 -0.264457,0.07851 -0.441995,0.18084 -0.624801,0.360126 -0.274705,0.269417 -0.601663,0.915237 -0.721143,1.424424 -0.04192,0.17861 -0.09147,1.18599 -0.119872,2.436255 -0.05051,2.224736 -0.103627,2.711343 -0.370514,3.395632 -0.289714,0.742802 -0.867762,1.295354 -1.589407,1.519313 -0.308979,0.09589 -1.061341,0.142396 -1.588882,0.09822 z M 8.5317192,23.306823 C 8.0592238,23.23295 7.4345822,23.027133 7.2248725,22.876224 6.9745307,22.696074 6.9201172,22.412935 6.9437751,21.413481 c 0.028332,-1.197021 0.08669,-1.257071 0.8714576,-0.89672 0.5278953,0.242392 1.0539699,0.296469 1.4389163,0.147899 0.3221371,-0.124329 0.477249,-0.307374 0.6165305,-0.727565 0.093416,-0.28182 0.1062851,-0.837618 0.1354765,-5.85386 l 0.03225,-5.5424804 0.241072,-0.1194921 c 0.206977,-0.1025924 0.368931,-0.119487 1.145092,-0.1194346 0.968223,6.29e-5 1.372775,0.073395 1.475541,0.2674439 0.08313,0.1569774 0.08356,10.8192502 4.56e-4,11.4889912 -0.176744,1.424493 -0.695437,2.343981 -1.600763,2.837677 -0.647301,0.35299 -1.9251945,0.542672 -2.7681017,0.410883 z m 9.5826028,-0.02409 c -1.091624,-0.201142 -2.157097,-0.622889 -2.542838,-1.006532 -0.258546,-0.257145 -0.344009,-0.66486 -0.308472,-1.471663 0.04907,-1.11425 0.212466,-1.226748 1.063516,-0.732246 0.912357,0.530124 1.615986,0.769385 2.549759,0.867015 1.68413,0.176086 2.824998,-0.549762 2.823641,-1.796461 -5.47e-4,-0.528448 -0.09907,-0.755632 -0.50583,-1.166698 -0.389211,-0.393339 -0.365461,-0.380047 -2.689059,-1.504489 -1.3754,-0.665589 -2.138926,-1.331372 -2.595859,-2.263546 -0.544822,-1.11148 -0.538192,-2.666658 0.0161,-3.779254 0.634737,-1.2740381 1.916334,-2.0744273 3.665599,-2.2892609 1.427829,-0.1753536 3.410098,0.2453296 4.065003,0.8626901 l 0.244152,0.2301575 v 0.9724813 c 0,0.870836 -0.01204,0.985873 -0.11481,1.10068 -0.06314,0.07052 -0.148414,0.128209 -0.189483,0.128209 -0.04109,0 -0.405784,-0.162208 -0.810474,-0.360456 -0.968054,-0.47423 -1.540494,-0.629082 -2.320508,-0.627732 -0.743861,0.0016 -1.168362,0.142895 -1.532954,0.51135 -0.433874,0.438468 -0.539424,1.172545 -0.2508,1.74429 0.259594,0.514234 0.778714,0.860366 2.382166,1.588355 1.44007,0.653814 1.952854,0.971366 2.568008,1.590281 0.820566,0.825577 1.142735,1.618961 1.142735,2.814077 0,2.469227 -1.536415,4.153358 -4.185151,4.587517 -0.656896,0.10767 -1.893454,0.108288 -2.474457,0.0011 z"
       id="path9190" /></g></svg>
